<svg width="193" height="92" viewBox="0 0 193 92" fill="none" xmlns="http://www.w3.org/2000/svg">
<path fill-rule="evenodd" clip-rule="evenodd" d="M64.5281 0H46.3693V12.9062H64.5281V0ZM19.3555 12.9062H46.3685V38.7187H19.3555V12.9062ZM82.836 12.9062H64.5272V38.7187H82.836V12.9062ZM109.999 38.7188H82.8358V85.5414H109.999V38.7188ZM46.3693 49.2239H64.5281V62.1301H46.3693V49.2239ZM55.5229 85.5413H19.3555V91.6942H55.5229V85.5413Z" fill="#00BAC6"/>
<path fill-rule="evenodd" clip-rule="evenodd" d="M151.883 0H165.689V14.557H151.883V0ZM151.882 18.6089H119.916V49.5238H151.882V18.6089ZM119.916 49.5239H101.457V60.9294H119.916V49.5239ZM165.688 38.1184H193.001V60.9294H165.689V80.5889H151.883V49.5239H165.688V38.1184ZM151.882 80.5889H129.071V91.5442H151.882V80.5889Z" fill="#A34AA8"/>
<path fill-rule="evenodd" clip-rule="evenodd" d="M102.304 0H93V4.3521H102.304V0ZM157.231 0H120.463V4.3521H157.231V0ZM116.11 19.0591H147.926V37.6681H116.11V19.0591ZM147.927 37.6682H124.816V60.7794H147.927V37.6682ZM120.463 60.7793H124.815V75.3363H120.463V84.7909H97.2018V68.7332H120.463V60.7793ZM147.926 84.791H166.535V91.6944H147.926V84.791ZM184.394 49.2239H165.785V68.7333H184.394V49.2239Z" fill="#53C373"/>
<path fill-rule="evenodd" clip-rule="evenodd" d="M63.7807 0H45.1717V38.7187H63.7807V0ZM45.1708 38.7188H27.3121V50.5745H45.1708V38.7188ZM45.9222 62.1299H63.7809V76.3868H45.9222V62.1299ZM36.318 85.6914H18.4594V88.5428H36.318V85.6914ZM0 13.3564H27.3132V38.7187H0V13.3564ZM91.0949 76.387H63.7817V91.8444H91.0949V76.387Z" fill="#F1672E"/>
</svg>
