<svg width="60" height="60" viewBox="0 0 60 60" fill="none" xmlns="http://www.w3.org/2000/svg">
<path fill-rule="evenodd" clip-rule="evenodd" d="M0 0H17.7036V2.88H0V0ZM50.6292 12.4H6.08984V24.88H12.0156V39.92H23.6311V24.88H50.6292V12.4ZM47.824 44.72H26.6758V55.28H47.824V44.72ZM47.8242 32.5599H60.0005V44.7199H47.8242V32.5599ZM60.0005 55.28H47.8242V60H60.0005V55.28Z" fill="#E9AB1D"/>
<path fill-rule="evenodd" clip-rule="evenodd" d="M3.02789 0H0V12.5936H3.02734V32.5668H14.8202V12.5936H24.1421V0H14.8194V12.5935H3.02789V0ZM50.8361 24.9465H32.8281V52.5401H50.8361V24.9465ZM59.9993 52.5402H50.8359V60.0001H59.9993V52.5402ZM23.6641 32.5669H32.8274V52.5402H23.6641V32.5669Z" fill="#6262BC"/>
</svg>
