<svg width="60" height="60" viewBox="0 0 60 60" fill="none" xmlns="http://www.w3.org/2000/svg">
<path fill-rule="evenodd" clip-rule="evenodd" d="M6.10837 0H0V2.84779H6.10837V0ZM42.1656 0H18.0277V2.84779H42.1656V0ZM15.1719 12.4713H36.0586V24.6481H15.1719V12.4713ZM36.0591 24.6482H20.8867V39.7709H36.0591V24.6482ZM18.0273 39.7709H20.8845V49.2962H18.0287V55.4828H2.75781V44.9755H18.0273V39.7709ZM36.0586 55.4828H48.2753V60H36.0586V55.4828ZM59.998 32.2095H47.7812V44.9754H59.998V32.2095Z" fill="#53C373"/>
<path fill-rule="evenodd" clip-rule="evenodd" d="M18.3389 0H30.2424V8.04781H18.3389V0ZM60.0009 8.04785H30.2422V24.4622H42.3047V44.7012H59.9991V24.4622H60.0009V8.04785ZM30.2433 31.7928H18.3398V39.8407H30.2433V31.7928ZM0 39.8406H18.3378V52.5896H0V39.8406ZM30.2433 55.3785H18.3398V60.0001H30.2433V55.3785Z" fill="#F74757"/>
</svg>
