<svg width="185" height="51" viewBox="0 0 185 51" fill="none" xmlns="http://www.w3.org/2000/svg">
<path d="M61.2 20.3C60.0533 20.3 59.0433 20.0667 58.17 19.6C57.3033 19.1333 56.6233 18.4767 56.13 17.63C55.6433 16.7833 55.4 15.79 55.4 14.65V5.62L57.84 5.6V14.59C57.84 15.13 57.93 15.6133 58.11 16.04C58.2967 16.4667 58.5467 16.83 58.86 17.13C59.1733 17.4233 59.5333 17.6467 59.94 17.8C60.3467 17.9533 60.7667 18.03 61.2 18.03C61.6467 18.03 62.07 17.9533 62.47 17.8C62.8767 17.64 63.2367 17.4133 63.55 17.12C63.8633 16.82 64.11 16.4567 64.29 16.03C64.47 15.6033 64.56 15.1233 64.56 14.59V5.6H67V14.65C67 15.79 66.7533 16.7833 66.26 17.63C65.7733 18.4767 65.0933 19.1333 64.22 19.6C63.3533 20.0667 62.3467 20.3 61.2 20.3ZM69.7745 20L69.7945 5.6H72.2345V14.4L76.1845 9.2H79.1945L75.0045 14.6L79.5545 20H76.3645L72.2345 14.8V20H69.7745ZM80.5563 20V9.2H82.6863V11.83L82.4263 11.49C82.5596 11.13 82.7363 10.8033 82.9563 10.51C83.1829 10.21 83.4529 9.96333 83.7663 9.77C84.0329 9.59 84.3263 9.45 84.6463 9.35C84.9729 9.24333 85.3063 9.18 85.6463 9.16C85.9863 9.13333 86.3163 9.14667 86.6363 9.2V11.45C86.3163 11.3567 85.9463 11.3267 85.5263 11.36C85.1129 11.3933 84.7396 11.51 84.4063 11.71C84.0729 11.89 83.7996 12.12 83.5863 12.4C83.3796 12.68 83.2263 13 83.1263 13.36C83.0263 13.7133 82.9763 14.0967 82.9763 14.51V20H80.5563ZM91.3106 20.3C90.5306 20.3 89.8706 20.1533 89.3306 19.86C88.7906 19.56 88.3806 19.1633 88.1006 18.67C87.8273 18.1767 87.6906 17.6333 87.6906 17.04C87.6906 16.52 87.7773 16.0533 87.9506 15.64C88.124 15.22 88.3906 14.86 88.7506 14.56C89.1106 14.2533 89.5773 14.0033 90.1506 13.81C90.584 13.67 91.0906 13.5433 91.6706 13.43C92.2573 13.3167 92.8906 13.2133 93.5706 13.12C94.2573 13.02 94.974 12.9133 95.7206 12.8L94.8606 13.29C94.8673 12.5433 94.7006 11.9933 94.3606 11.64C94.0206 11.2867 93.4473 11.11 92.6406 11.11C92.154 11.11 91.684 11.2233 91.2306 11.45C90.7773 11.6767 90.4606 12.0667 90.2806 12.62L88.0806 11.93C88.3473 11.0167 88.854 10.2833 89.6006 9.73C90.354 9.17667 91.3673 8.9 92.6406 8.9C93.6006 8.9 94.444 9.05667 95.1706 9.37C95.904 9.68333 96.4473 10.1967 96.8006 10.91C96.994 11.29 97.1106 11.68 97.1506 12.08C97.1906 12.4733 97.2106 12.9033 97.2106 13.37V20H95.1006V17.66L95.4506 18.04C94.964 18.82 94.394 19.3933 93.7406 19.76C93.094 20.12 92.284 20.3 91.3106 20.3ZM91.7906 18.38C92.3373 18.38 92.804 18.2833 93.1906 18.09C93.5773 17.8967 93.884 17.66 94.1106 17.38C94.344 17.1 94.5006 16.8367 94.5806 16.59C94.7073 16.2833 94.7773 15.9333 94.7906 15.54C94.8106 15.14 94.8206 14.8167 94.8206 14.57L95.5606 14.79C94.834 14.9033 94.2106 15.0033 93.6906 15.09C93.1706 15.1767 92.724 15.26 92.3506 15.34C91.9773 15.4133 91.6473 15.4967 91.3606 15.59C91.0806 15.69 90.844 15.8067 90.6506 15.94C90.4573 16.0733 90.3073 16.2267 90.2006 16.4C90.1006 16.5733 90.0506 16.7767 90.0506 17.01C90.0506 17.2767 90.1173 17.5133 90.2506 17.72C90.384 17.92 90.5773 18.08 90.8306 18.2C91.0906 18.32 91.4106 18.38 91.7906 18.38ZM100.014 7.56V5.35H102.424V7.56H100.014ZM100.014 20V9.2H102.424V20H100.014ZM112.89 20V14.8C112.89 14.46 112.866 14.0833 112.82 13.67C112.773 13.2567 112.663 12.86 112.49 12.48C112.323 12.0933 112.07 11.7767 111.73 11.53C111.396 11.2833 110.943 11.16 110.37 11.16C110.063 11.16 109.76 11.21 109.46 11.31C109.16 11.41 108.886 11.5833 108.64 11.83C108.4 12.07 108.206 12.4033 108.06 12.83C107.913 13.25 107.84 13.79 107.84 14.45L106.41 13.84C106.41 12.92 106.586 12.0867 106.94 11.34C107.3 10.5933 107.826 10 108.52 9.56C109.213 9.11333 110.066 8.89 111.08 8.89C111.88 8.89 112.54 9.02333 113.06 9.29C113.58 9.55667 113.993 9.89667 114.3 10.31C114.606 10.7233 114.833 11.1633 114.98 11.63C115.126 12.0967 115.22 12.54 115.26 12.96C115.306 13.3733 115.33 13.71 115.33 13.97V20H112.89ZM105.4 20V9.2H107.55V12.55H107.84V20H105.4ZM118.139 7.56V5.35H120.549V7.56H118.139ZM118.139 20V9.2H120.549V20H118.139ZM126.565 20.3C125.785 20.3 125.125 20.1533 124.585 19.86C124.045 19.56 123.635 19.1633 123.355 18.67C123.081 18.1767 122.945 17.6333 122.945 17.04C122.945 16.52 123.031 16.0533 123.205 15.64C123.378 15.22 123.645 14.86 124.005 14.56C124.365 14.2533 124.831 14.0033 125.405 13.81C125.838 13.67 126.345 13.5433 126.925 13.43C127.511 13.3167 128.145 13.2133 128.825 13.12C129.511 13.02 130.228 12.9133 130.975 12.8L130.115 13.29C130.121 12.5433 129.955 11.9933 129.615 11.64C129.275 11.2867 128.701 11.11 127.895 11.11C127.408 11.11 126.938 11.2233 126.485 11.45C126.031 11.6767 125.715 12.0667 125.535 12.62L123.335 11.93C123.601 11.0167 124.108 10.2833 124.855 9.73C125.608 9.17667 126.621 8.9 127.895 8.9C128.855 8.9 129.698 9.05667 130.425 9.37C131.158 9.68333 131.701 10.1967 132.055 10.91C132.248 11.29 132.365 11.68 132.405 12.08C132.445 12.4733 132.465 12.9033 132.465 13.37V20H130.355V17.66L130.705 18.04C130.218 18.82 129.648 19.3933 128.995 19.76C128.348 20.12 127.538 20.3 126.565 20.3ZM127.045 18.38C127.591 18.38 128.058 18.2833 128.445 18.09C128.831 17.8967 129.138 17.66 129.365 17.38C129.598 17.1 129.755 16.8367 129.835 16.59C129.961 16.2833 130.031 15.9333 130.045 15.54C130.065 15.14 130.075 14.8167 130.075 14.57L130.815 14.79C130.088 14.9033 129.465 15.0033 128.945 15.09C128.425 15.1767 127.978 15.26 127.605 15.34C127.231 15.4133 126.901 15.4967 126.615 15.59C126.335 15.69 126.098 15.8067 125.905 15.94C125.711 16.0733 125.561 16.2267 125.455 16.4C125.355 16.5733 125.305 16.7767 125.305 17.01C125.305 17.2767 125.371 17.5133 125.505 17.72C125.638 17.92 125.831 18.08 126.085 18.2C126.345 18.32 126.665 18.38 127.045 18.38ZM142.538 20V14.8C142.538 14.46 142.515 14.0833 142.468 13.67C142.421 13.2567 142.311 12.86 142.138 12.48C141.971 12.0933 141.718 11.7767 141.378 11.53C141.045 11.2833 140.591 11.16 140.018 11.16C139.711 11.16 139.408 11.21 139.108 11.31C138.808 11.41 138.535 11.5833 138.288 11.83C138.048 12.07 137.855 12.4033 137.708 12.83C137.561 13.25 137.488 13.79 137.488 14.45L136.058 13.84C136.058 12.92 136.235 12.0867 136.588 11.34C136.948 10.5933 137.475 10 138.168 9.56C138.861 9.11333 139.715 8.89 140.728 8.89C141.528 8.89 142.188 9.02333 142.708 9.29C143.228 9.55667 143.641 9.89667 143.948 10.31C144.255 10.7233 144.481 11.1633 144.628 11.63C144.775 12.0967 144.868 12.54 144.908 12.96C144.955 13.3733 144.978 13.71 144.978 13.97V20H142.538ZM135.048 20V9.2H137.198V12.55H137.488V20H135.048ZM55.6 45V30.6H58.01V45H55.6ZM64.4655 45V32.86H59.8055V30.6H71.5355V32.86H66.8755V45H64.4655ZM75.5328 45L80.0728 30.6H83.6028L88.1428 45H85.6628L81.5428 32.08H82.0828L78.0128 45H75.5328ZM78.0628 41.88V39.63H85.6228V41.88H78.0628ZM91.45 45L88.15 34.18L90.51 34.2L92.62 41.13L94.76 34.2H96.79L98.92 41.13L101.04 34.2H103.4L100.1 45H98.22L95.77 37.57L93.33 45H91.45ZM107.619 45.3C106.839 45.3 106.179 45.1533 105.639 44.86C105.099 44.56 104.689 44.1633 104.409 43.67C104.136 43.1767 103.999 42.6333 103.999 42.04C103.999 41.52 104.086 41.0533 104.259 40.64C104.433 40.22 104.699 39.86 105.059 39.56C105.419 39.2533 105.886 39.0033 106.459 38.81C106.893 38.67 107.399 38.5433 107.979 38.43C108.566 38.3167 109.199 38.2133 109.879 38.12C110.566 38.02 111.283 37.9133 112.029 37.8L111.169 38.29C111.176 37.5433 111.009 36.9933 110.669 36.64C110.329 36.2867 109.756 36.11 108.949 36.11C108.463 36.11 107.993 36.2233 107.539 36.45C107.086 36.6767 106.769 37.0667 106.589 37.62L104.389 36.93C104.656 36.0167 105.163 35.2833 105.909 34.73C106.663 34.1767 107.676 33.9 108.949 33.9C109.909 33.9 110.753 34.0567 111.479 34.37C112.213 34.6833 112.756 35.1967 113.109 35.91C113.303 36.29 113.419 36.68 113.459 37.08C113.499 37.4733 113.519 37.9033 113.519 38.37V45H111.409V42.66L111.759 43.04C111.273 43.82 110.703 44.3933 110.049 44.76C109.403 45.12 108.593 45.3 107.619 45.3ZM108.099 43.38C108.646 43.38 109.113 43.2833 109.499 43.09C109.886 42.8967 110.193 42.66 110.419 42.38C110.653 42.1 110.809 41.8367 110.889 41.59C111.016 41.2833 111.086 40.9333 111.099 40.54C111.119 40.14 111.129 39.8167 111.129 39.57L111.869 39.79C111.143 39.9033 110.519 40.0033 109.999 40.09C109.479 40.1767 109.033 40.26 108.659 40.34C108.286 40.4133 107.956 40.4967 107.669 40.59C107.389 40.69 107.153 40.8067 106.959 40.94C106.766 41.0733 106.616 41.2267 106.509 41.4C106.409 41.5733 106.359 41.7767 106.359 42.01C106.359 42.2767 106.426 42.5133 106.559 42.72C106.693 42.92 106.886 43.08 107.139 43.2C107.399 43.32 107.719 43.38 108.099 43.38ZM116.123 45V34.2H118.253V36.83L117.993 36.49C118.126 36.13 118.303 35.8033 118.523 35.51C118.749 35.21 119.019 34.9633 119.333 34.77C119.599 34.59 119.893 34.45 120.213 34.35C120.539 34.2433 120.873 34.18 121.213 34.16C121.553 34.1333 121.883 34.1467 122.203 34.2V36.45C121.883 36.3567 121.513 36.3267 121.093 36.36C120.679 36.3933 120.306 36.51 119.973 36.71C119.639 36.89 119.366 37.12 119.153 37.4C118.946 37.68 118.793 38 118.693 38.36C118.593 38.7133 118.543 39.0967 118.543 39.51V45H116.123ZM128.246 45.3C127.252 45.3 126.386 45.05 125.646 44.55C124.906 44.05 124.332 43.37 123.926 42.51C123.519 41.65 123.316 40.68 123.316 39.6C123.316 38.5067 123.519 37.5333 123.926 36.68C124.339 35.82 124.922 35.1433 125.676 34.65C126.429 34.15 127.316 33.9 128.336 33.9C129.362 33.9 130.222 34.15 130.916 34.65C131.616 35.1433 132.146 35.82 132.506 36.68C132.866 37.54 133.046 38.5133 133.046 39.6C133.046 40.6733 132.866 41.6433 132.506 42.51C132.146 43.37 131.609 44.05 130.896 44.55C130.182 45.05 129.299 45.3 128.246 45.3ZM128.616 43.14C129.262 43.14 129.782 42.9933 130.176 42.7C130.576 42.4 130.866 41.9833 131.046 41.45C131.232 40.9167 131.326 40.3 131.326 39.6C131.326 38.8933 131.232 38.2767 131.046 37.75C130.866 37.2167 130.582 36.8033 130.196 36.51C129.809 36.21 129.309 36.06 128.696 36.06C128.049 36.06 127.516 36.22 127.096 36.54C126.676 36.8533 126.366 37.28 126.166 37.82C125.966 38.3533 125.866 38.9467 125.866 39.6C125.866 40.26 125.962 40.86 126.156 41.4C126.356 41.9333 126.659 42.3567 127.066 42.67C127.472 42.9833 127.989 43.14 128.616 43.14ZM131.326 45V37.42H131.026V30.6H133.456V45H131.326ZM140.429 45.3C139.096 45.3 138.013 45 137.179 44.4C136.346 43.8 135.839 42.9567 135.659 41.87L138.119 41.49C138.246 42.0233 138.526 42.4433 138.959 42.75C139.393 43.0567 139.939 43.21 140.599 43.21C141.179 43.21 141.626 43.0967 141.939 42.87C142.259 42.6367 142.419 42.32 142.419 41.92C142.419 41.6733 142.359 41.4767 142.239 41.33C142.126 41.1767 141.873 41.03 141.479 40.89C141.086 40.75 140.483 40.5733 139.669 40.36C138.763 40.12 138.043 39.8633 137.509 39.59C136.976 39.31 136.593 38.98 136.359 38.6C136.126 38.22 136.009 37.76 136.009 37.22C136.009 36.5467 136.186 35.96 136.539 35.46C136.893 34.96 137.386 34.5767 138.019 34.31C138.653 34.0367 139.399 33.9 140.259 33.9C141.099 33.9 141.843 34.03 142.489 34.29C143.143 34.55 143.669 34.92 144.069 35.4C144.469 35.88 144.716 36.4433 144.809 37.09L142.349 37.53C142.289 37.07 142.079 36.7067 141.719 36.44C141.366 36.1733 140.893 36.0233 140.299 35.99C139.733 35.9567 139.276 36.0433 138.929 36.25C138.583 36.45 138.409 36.7333 138.409 37.1C138.409 37.3067 138.479 37.4833 138.619 37.63C138.759 37.7767 139.039 37.9233 139.459 38.07C139.886 38.2167 140.519 38.3967 141.359 38.61C142.219 38.83 142.906 39.0833 143.419 39.37C143.939 39.65 144.313 39.9867 144.539 40.38C144.773 40.7733 144.889 41.25 144.889 41.81C144.889 42.8967 144.493 43.75 143.699 44.37C142.913 44.99 141.823 45.3 140.429 45.3Z" fill="white"/>
<path fill-rule="evenodd" clip-rule="evenodd" d="M14.2005 5.59863H0V18.7991H14.2005V5.59863ZM22.3984 5.59863H28.7987V18.7991H22.3984V5.59863ZM28.8046 18.7993H43.0051V45.2003H28.8046V18.7993Z" fill="#A21ED8"/>
</svg>
