<svg width="158" height="92" viewBox="0 0 158 92" fill="none" xmlns="http://www.w3.org/2000/svg">
<path fill-rule="evenodd" clip-rule="evenodd" d="M47.3555 13.0635H74.3685V38.8759H47.3555V13.0635ZM98.3088 20.0002H80V45.0002H71V75.3811H63.3711V88.2873H71V91.8228H98.1631V45.8127H98.3088V20.0002ZM63.1588 63.0002H45V75.9065H63.1588V63.0002ZM53.5229 85.6985H17.3555V91.8515H53.5229V85.6985Z" fill="#00BAC6"/>
<path fill-rule="evenodd" clip-rule="evenodd" d="M31.9654 0H0V30.9149H31.9654V28.811H39V31.065H52.8067V28.811H53.3132V6H52.8067V0H39V6H35.6889V0.307129H31.9654V0ZM29.4589 31H11V42.4055H29.4589V31ZM31.811 69H9V79.9553H31.811V69Z" fill="#A34AA8"/>
<path fill-rule="evenodd" clip-rule="evenodd" d="M106.304 0.00683594H97V4.35894H106.304V0.00683594ZM157.768 60.9998H121V65.3519H157.768V60.9998ZM87 64.9998H94.4629V60.7861H98.815V64.9998H118.815V83.6087H94.4631V84.7977H71.2019V69.5092H67V49.9998H85.609V68.74H87V64.9998ZM121.927 37.675H98.8155V60.7862H121.927V37.675ZM67 84.9998H85.609V91.9031H67V84.9998Z" fill="#53C373"/>
<path fill-rule="evenodd" clip-rule="evenodd" d="M37 0H64.3132V4H82.609V42.7187H64V25.3622H54.8586V36H60.8586V50.2569H43V42.8514H37V40H43V36.8557H37V25.3622V25V0ZM85.3132 54H58V69.4575H85.3132V54Z" fill="#F1672E"/>
</svg>
